<svg height="512" viewBox="0 0 64 64" width="512" xmlns="http://www.w3.org/2000/svg" xmlns:xlink="http://www.w3.org/1999/xlink"><linearGradient id="New_Gradient_Swatch" gradientUnits="userSpaceOnUse" x1="32" x2="32" y1="63.502" y2="-.458"><stop offset="0" stop-color="#e93e3a"/><stop offset=".35" stop-color="#ed683c"/><stop offset=".7" stop-color="#f3903f"/><stop offset="1" stop-color="#fdc70c"/></linearGradient><linearGradient id="New_Gradient_Swatch-3" x1="45" x2="45" xlink:href="#New_Gradient_Swatch" y1="63.502" y2="-.458"/><linearGradient id="New_Gradient_Swatch-4" x1="19" x2="19" xlink:href="#New_Gradient_Swatch" y1="63.502" y2="-.458"/><g id="Contact_us" data-name="Contact us"><path d="m41 26v-1a1 1 0 0 0 1-1v-3a10 10 0 0 0 -20 0v3a1 1 0 0 0 1 1v1a9 9 0 0 0 5 8.05v1.186l-5.846 1.59a7.03 7.03 0 0 0 -5.154 6.754v6.42a1 1 0 0 0 1 1h28a1 1 0 0 0 1-1v-6.42a7.031 7.031 0 0 0 -5.157-6.755l-5.843-1.589v-1.186a9 9 0 0 0 5-8.05zm-17-5a8 8 0 0 1 16 0v1.951a4.969 4.969 0 0 1 -3.764-2.715l-.341-.683a1 1 0 0 0 -1.6-.26l-1.659 1.657a6.954 6.954 0 0 1 -4.949 2.05h-3.687zm1 5v-1h2.687a8.937 8.937 0 0 0 6.363-2.636l.7-.7a6.943 6.943 0 0 0 4.25 3.123v1.213a7 7 0 0 1 -14 0zm8 17v-2.531l3.6-3 1.4.38v1.734l-6 6-6-6v-1.731l1.4-.38 3.6 3v2.528zm12 .58v5.42h-26v-5.42a5.024 5.024 0 0 1 3.683-4.825l1.317-.355v1.6a1 1 0 0 0 .293.707l7 7a1 1 0 0 0 1.414 0l7-7a1 1 0 0 0 .293-.707v-1.6l1.314.358a5.026 5.026 0 0 1 3.686 4.822zm-10.651-6.837-2.349 1.957-2.349-1.956a.989.989 0 0 0 .349-.744v-1.232a8.737 8.737 0 0 0 4 0v1.232a.989.989 0 0 0 .349.743z" fill="url(#New_Gradient_Swatch)"/><path d="m36 27h-2a2 2 0 0 1 -4 0h-2a4 4 0 0 0 8 0z" fill="url(#New_Gradient_Swatch)"/><path d="m34.309 5.105 2.4-2.4-1.416-1.412-4 4a1 1 0 0 0 0 1.414l4 4 1.414-1.414-2.164-2.164a25 25 0 0 1 3.228 49.2l.458 1.946a27 27 0 0 0 -3.92-53.172z" fill="url(#New_Gradient_Swatch-3)"/><path d="m28.707 53.293-1.414 1.414 2.164 2.164a25 25 0 0 1 -3.228-49.2l-.458-1.946a27 27 0 0 0 3.92 53.175l-2.4 2.4 1.414 1.414 4-4a1 1 0 0 0 0-1.414z" fill="url(#New_Gradient_Swatch-4)"/></g></svg>