<svg id="flat" height="512" viewBox="0 0 512 512" width="512" xmlns="http://www.w3.org/2000/svg"><path d="m144 344v-65.77587a62.83139 62.83139 0 0 0 14.8328 1.77587h33.1672a16 16 0 0 0 16-16v-40l24-16-24-32v-88h-144v256z" fill="#ffceb6"/><path d="m168 328 56 32 32 128h-232v-176l96 16z" fill="#548aff"/><path d="m240 56a31.99194 31.99194 0 0 1 -12.8 25.6l-19.2 14.4h-56l-24 40-4.8 8-27.2 45.33v26.67l-32 16-16.68994-30.04a185.22069 185.22069 0 0 1 -23.31006-89.96 87.92311 87.92311 0 0 1 88-88h96a31.99139 31.99139 0 0 1 32 32z" fill="#b1712c"/><path d="m384 200-72 64v-64h-32a16 16 0 0 1 -16-16v-144a16 16 0 0 1 16-16h192a16 16 0 0 1 16 16v144a16 16 0 0 1 -16 16z" fill="#ffc431"/><circle cx="376" cy="112" fill="#ffb401" r="56"/><path d="m312 200h72l-72 64z" fill="#ffb401"/><circle cx="176" cy="168" fill="#91591c" r="8"/><path d="m152 136h32v16h-32z" fill="#b1712c"/><path d="m144 278.22413v16.55763l-1.89014-.46a70.8864 70.8864 0 0 1 -14.94995-5.48 70.14381 70.14381 0 0 1 -24.01-19.58008l-4.95-6.29 12.58009-9.87992 4.95 6.2901a54.00353 54.00353 0 0 0 28.27 18.84227z" fill="#ffb089"/><path d="m64 288 56 40-48 64-48-80z" fill="#7dafff"/><path d="m168 328v56l-48-56 24-24z" fill="#7dafff"/><path d="m96 488 16-96-18.824-28.235 26.824-35.765 30.316 35.368-14.316 28.632 24 96z" fill="#4976f2"/><path d="m136 400h-24a8 8 0 0 1 0-16h24a8 8 0 0 1 0 16z" fill="#486be0"/><path d="m184 248h-24a7.99975 7.99975 0 0 1 -6.14551-2.87842l-48-57.6001 12.291-10.24316 45.60158 54.72168h20.25293z" fill="#b2c6eb"/><path d="m128 112v32h-64v-32l16-16v-66a87.85148 87.85148 0 0 1 32-6v72z" fill="#b2c6eb"/><path d="m368 80h16v16h-16z" fill="#ffd873"/><path d="m368 112h16v32h-16z" fill="#ffd873"/><circle cx="96" cy="160" fill="#d1e4ff" r="40"/></svg>