<svg id="Layer_1" height="512" viewBox="0 0 128 128" width="512" xmlns="http://www.w3.org/2000/svg" data-name="Layer 1"><path d="m96 114.4h-56.587a1.75 1.75 0 0 1 -1.75-1.75v-97.3a1.75 1.75 0 0 1 1.75-1.75h56.587a1.75 1.75 0 0 1 1.75 1.75v38.65a1.75 1.75 0 0 1 -3.5 0v-36.9h-53.087v93.8h53.087v-36.9a1.75 1.75 0 0 1 3.5 0v38.65a1.75 1.75 0 0 1 -1.75 1.75z" fill="#12304c"/><path d="m47.459 121.5-39.807-17.692v-79.616l39.807-17.692z" fill="#1bce89"/><g fill="#12304c"><path d="m121.5 62.25h-53.275l9.523-9.523a1.75 1.75 0 0 0 -2.475-2.475l-12.508 12.508a1.755 1.755 0 0 0 -.221.271c-.025.038-.042.079-.064.118a1.045 1.045 0 0 0 -.149.352c-.016.052-.036.1-.047.157a1.756 1.756 0 0 0 0 .685c.011.054.031.1.046.156a1.7 1.7 0 0 0 .053.17 1.732 1.732 0 0 0 .1.182c.022.039.039.081.065.119a1.755 1.755 0 0 0 .221.271l12.504 12.507a1.75 1.75 0 0 0 2.475-2.475l-9.523-9.523h53.275a1.75 1.75 0 0 0 0-3.5z"/><path d="m13.076 97.083a1.75 1.75 0 0 1 -1.75-1.75v-28.666a1.75 1.75 0 0 1 3.5 0v28.666a1.75 1.75 0 0 1 -1.75 1.75z"/><path d="m47.459 78.375a1.75 1.75 0 0 0 -1.75 1.75v6.125a1.75 1.75 0 0 0 3.5 0v-6.125a1.75 1.75 0 0 0 -1.75-1.75z"/><path d="m48.412 5.032a1.755 1.755 0 0 0 -1.664-.132l-39.808 17.693a1.751 1.751 0 0 0 -1.039 1.6v19.907a1.75 1.75 0 0 0 3.5 0v-18.77l36.308-16.138v62.558a1.75 1.75 0 0 0 3.5 0v-65.25a1.75 1.75 0 0 0 -.797-1.468z"/><path d="m47.459 92.25a1.75 1.75 0 0 0 -1.75 1.75v24.808l-36.309-16.138v-47.253a1.75 1.75 0 0 0 -3.5 0v48.391a1.751 1.751 0 0 0 1.039 1.6l39.809 17.692a1.75 1.75 0 0 0 2.461-1.6v-27.5a1.75 1.75 0 0 0 -1.75-1.75z"/></g></svg>