<svg height="512pt" viewBox="0 0 512 512" width="512pt" xmlns="http://www.w3.org/2000/svg"><path d="m298.667969 106.667969c0 58.910156-47.757813 106.664062-106.667969 106.664062s-106.667969-47.753906-106.667969-106.664062c0-58.910157 47.757813-106.667969 106.667969-106.667969s106.667969 47.757812 106.667969 106.667969zm0 0" fill="#607d8b"/><path d="m202.667969 373.332031c0-45.460937 17.984375-86.71875 47.058593-117.332031h-148.394531c-55.871093 0-101.332031 45.460938-101.332031 101.332031v74.667969c0 8.832031 7.167969 16 16 16h204.097656c-11.050781-22.59375-17.429687-47.871094-17.429687-74.667969zm0 0" fill="#607d8b"/><path d="m373.332031 234.667969c-76.457031 0-138.664062 62.207031-138.664062 138.664062 0 76.460938 62.207031 138.667969 138.664062 138.667969 76.460938 0 138.667969-62.207031 138.667969-138.667969 0-76.457031-62.207031-138.664062-138.667969-138.664062zm47.082031 185.746093c-4.15625 4.160157-9.621093 6.253907-15.082031 6.253907-5.460937 0-10.921875-2.09375-15.082031-6.253907l-32-32c-4.011719-3.988281-6.25-9.40625-6.25-15.082031v-53.332031c0-11.796875 9.558594-21.332031 21.332031-21.332031 11.777344 0 21.335938 9.535156 21.335938 21.332031v44.5l25.746093 25.75c8.34375 8.34375 8.34375 21.824219 0 30.164062zm0 0" fill="#4caf50"/></svg>