<?xml version="1.0" encoding="iso-8859-1"?>
<!-- Generator: Adobe Illustrator 19.0.0, SVG Export Plug-In . SVG Version: 6.00 Build 0)  -->
<svg version="1.1" id="Capa_1" xmlns="http://www.w3.org/2000/svg" xmlns:xlink="http://www.w3.org/1999/xlink" x="0px" y="0px"
	 viewBox="0 0 501.551 501.551" style="enable-background:new 0 0 501.551 501.551;" xml:space="preserve">
<path style="fill:#00ACEA;" d="M487.967,266.449c-3.135-5.224-7.314-9.927-12.539-13.584v-6.792c0-11.494-7.837-21.943-18.808-25.6
	l-27.69-7.314c-5.224-1.567-10.449-1.567-15.673,0l-28.212,7.314c-11.494,3.657-19.331,13.584-19.331,25.6v6.792
	c-5.224,3.657-9.404,8.359-12.539,13.584c-12.539,19.853-13.061,45.453-1.045,65.829c9.926,18.286,28.735,29.78,49.633,29.78h3.135
	c4.18-0.522,7.314-3.657,7.314-7.837s-3.657-7.837-7.837-7.837h-0.522h-0.522c-15.673,0.522-29.78-7.837-37.094-21.943
	c-9.404-15.151-8.882-34.482,0.522-49.633h-1.045v7.314c0,3.657,3.135,6.792,6.792,7.314c2.612,1.045,5.747,1.045,8.882,1.045
	c12.539,0,24.555-5.224,32.914-14.629c15.151,13.061,36.049,17.241,54.857,11.494c3.657-1.045,6.269-4.18,6.269-7.837v-4.18
	c9.926,14.629,10.449,33.959,1.045,49.11c-7.314,14.106-21.943,22.465-37.616,21.943h-0.522c-4.18,0-7.837,3.657-8.359,7.837
	c0,4.18,3.135,7.314,7.314,7.837h3.135c20.375,0,39.706-11.494,49.11-29.78C501.551,311.902,501.029,286.302,487.967,266.449z
	 M459.755,273.241c-14.629,3.135-29.78-2.09-39.184-13.584c-1.567-2.09-4.18-3.135-6.792-3.135c-2.612,0-5.224,1.045-7.314,3.135
	c-8.359,12.016-14.629,15.151-25.078,15.151v-28.735c0-4.702,3.135-8.882,7.837-10.449l27.69-7.314h7.837l27.69,7.314
	c4.702,1.567,7.314,5.747,7.314,10.449V273.241z"/>
<path style="fill:#EDB288;" d="M84.637,369.894c-31.869,0-57.992-26.122-57.992-57.992v-29.257c0-4.18,3.657-7.837,7.837-7.837
	s7.837,3.657,7.837,7.837l0,0v29.257c0,23.51,18.808,42.318,42.318,42.318s42.318-18.808,42.318-42.318V277.42
	c0-4.18,3.657-7.837,7.837-7.837s7.837,3.657,7.837,7.837v34.482C142.629,343.771,116.506,369.894,84.637,369.894L84.637,369.894z"
	/>
<path style="fill:#00ACEA;" d="M113.894,293.094c-16.196-0.522-31.869-8.359-41.273-21.42
	c-17.241,0.522-31.869,15.673-32.392,15.673c-2.09,2.612-5.224,3.135-8.359,2.09s-5.224-4.18-5.224-7.314v-33.959
	c0-12.016,8.359-22.465,19.853-25.6l29.78-7.314c5.224-1.567,11.494-1.567,16.718,0l29.78,7.314
	c11.494,3.135,19.853,13.584,19.853,25.6v31.869c0,2.612-1.567,5.224-4.18,6.792C130.612,290.482,122.253,292.572,113.894,293.094z
	 M73.143,256h4.18c2.09,0,4.18,1.045,5.747,3.135c2.09,3.135,17.763,25.077,43.886,15.151v-26.122c0-4.702-3.135-8.882-7.837-9.926
	L88.816,230.4c-2.612-1.045-5.747-1.045-8.359,0l-29.78,7.314c-4.702,1.567-7.837,5.747-8.359,10.449v17.763
	C51.2,259.657,62.171,256,73.143,256z"/>
<path style="fill:#00EFD1;" d="M102.4,176.588H76.8c-4.18,0-7.837-3.657-7.837-7.837v-32.914H35.527
	c-4.18,0-7.837-3.657-7.837-7.837v-25.6c0-4.18,3.657-7.837,7.837-7.837h33.437V61.127c0-4.18,3.657-7.837,7.837-7.837h25.6
	c4.18,0,7.837,3.657,7.837,7.837v33.437h32.914c4.18-0.522,7.314,2.612,7.837,6.792c0,0.522,0,0.522,0,1.045V128
	c0,4.18-3.657,7.837-7.837,7.837h-32.914v32.914C110.237,172.931,106.58,176.588,102.4,176.588z M84.637,160.914h9.926V128
	c0-4.18,3.657-7.837,7.837-7.837h32.914v-9.926H102.4c-4.18,0-7.837-3.657-7.837-7.837V68.963h-9.926V102.4
	c0,4.18-3.657,7.837-7.837,7.837H43.363v9.926H76.8c4.18,0,7.837,3.657,7.837,7.837V160.914z"/>
<g>
	<path style="fill:#00ACEA;" d="M270.106,385.045h-6.269c-4.18,0-7.837-3.657-7.837-7.837c0-4.18,3.657-7.837,7.837-7.837h6.269
		c4.18,0,7.837,3.657,7.837,7.837C277.943,381.388,274.286,385.045,270.106,385.045z"/>
	<path style="fill:#00ACEA;" d="M270.106,403.853h-6.269c-4.18,0-7.837-3.657-7.837-7.837s3.657-7.837,7.837-7.837h6.269
		c4.18,0,7.837,3.657,7.837,7.837c0.522,4.18-2.612,7.314-6.792,7.837C270.629,403.853,270.629,403.853,270.106,403.853z"/>
</g>
<g>
	<path style="fill:#EDB288;" d="M210.025,259.657c-10.971,0.522-19.853-8.359-20.375-19.331c0-0.522,0-0.522,0-1.045v-3.135
		c0-4.18,3.657-7.837,7.837-7.837s7.837,3.657,7.837,7.837v3.135c0,2.612,2.09,4.702,4.702,4.702s4.702-2.09,4.702-4.702v-3.135
		c0-4.18,3.657-7.837,7.837-7.837s7.837,3.657,7.837,7.837v3.135c0.522,10.971-8.359,19.853-19.331,20.375
		C210.547,259.657,210.547,259.657,210.025,259.657z"/>
	<path style="fill:#EDB288;" d="M273.763,259.657c-11.494,0.522-20.375-8.359-20.898-19.853v-0.522v-3.135
		c0-4.18,3.657-7.837,7.837-7.837c4.18,0,7.837,3.657,7.837,7.837v3.135c0,2.612,2.09,4.702,4.702,4.702h0.522
		c2.612,0,4.702-2.09,4.702-4.702l0,0v-3.135c0-4.18,3.657-7.837,7.837-7.837c4.18,0,7.837,3.657,7.837,7.837v3.135
		C294.139,250.776,285.257,259.657,273.763,259.657L273.763,259.657z"/>
	<path style="fill:#EDB288;" d="M316.082,188.604c-4.18,0-7.837,3.657-7.837,7.837v50.155c-3.135,36.571-35.527,63.739-72.62,60.604
		c-36.571-3.135-63.739-35.526-60.604-72.62v-36.571c0-4.18-3.657-7.837-7.837-7.837s-7.837,3.657-7.837,7.837v41.796
		c0,34.482,20.898,63.739,50.678,76.278v12.539c0,4.18,3.657,7.837,7.837,7.837s7.837-3.657,7.837-7.837v-7.837
		c5.224,1.045,10.449,1.567,16.196,1.567h0.522c6.269,0,12.539-1.045,18.286-2.09v8.359c0,4.18,3.657,7.837,7.837,7.837
		c4.18,0,7.837-3.657,7.837-7.837v-14.106c28.212-13.061,47.543-41.796,47.543-74.71v-43.363
		C323.918,192.261,320.261,188.604,316.082,188.604z"/>
	<path style="fill:#EDB288;" d="M167.184,248.686h-7.837c-11.494,0.522-20.375-8.359-20.898-19.853c0-0.522,0-0.522,0-1.045
		c0-11.494,9.404-20.898,20.898-20.898h7.837c4.18,0,7.837,3.657,7.837,7.837c0.522,4.18-2.612,7.314-6.792,7.837
		c-0.522,0-0.522,0-1.045,0h-7.837c-2.612,0-5.224,2.612-5.224,5.224c0,3.135,2.09,5.224,5.224,5.224h7.837
		c4.18,0,7.837,3.657,7.837,7.837c0.522,4.18-2.612,7.314-6.792,7.837C167.706,248.686,167.706,248.686,167.184,248.686z"/>
	<path style="fill:#EDB288;" d="M323.918,248.686h-2.612c-4.18,0-7.837-3.657-7.837-7.837c0-4.18,3.657-7.837,7.837-7.837h2.612
		c2.612,0.522,4.702-1.567,5.225-4.18c0-0.522,0-0.522,0-1.045c0-3.135-2.09-5.224-5.225-5.224h-2.612
		c-4.18,0-7.837-3.657-7.837-7.837c0-4.18,3.657-7.837,7.837-7.837h2.612c11.494,0,20.898,9.404,20.898,20.898
		c0.522,11.494-8.359,20.375-19.853,20.898C324.441,248.686,324.441,248.686,323.918,248.686z"/>
	<path style="fill:#EDB288;" d="M421.094,364.147c-29.257,0-53.29-25.6-53.29-56.947v-29.78c0-4.18,3.657-7.837,7.837-7.837
		c4.18,0,7.837,3.657,7.837,7.837v29.78c0,22.988,16.718,41.273,37.616,41.273c20.898,0,38.139-18.286,38.139-41.273v-27.69
		c0-4.18,3.657-7.837,7.837-7.837c4.18,0,7.837,3.657,7.837,7.837v27.69C474.906,338.547,450.874,364.147,421.094,364.147z"/>
</g>
<path style="fill:#00ACEA;" d="M460.278,359.445h-22.465c-2.09-0.522-4.18,0-5.747,1.567c-2.612,2.612-6.269,4.18-9.927,3.657l0,0
	c-3.657,0.522-7.314-1.045-9.926-3.657c-1.045-1.567-3.135-1.567-5.747-1.567h-27.69c-6.269,0.522-12.016,2.09-17.241,4.702
	c-7.837-24.555-30.302-41.273-56.424-41.273h-36.571c-2.09,0-4.18,0-5.224,1.567l-20.898,19.853l-18.808-19.331
	c-1.567-1.567-3.657-2.09-5.747-2.09H181.29c-26.122-0.522-49.11,16.718-56.425,41.796h-21.943c-2.09,0-4.18,0.522-5.747,2.09
	l-11.494,11.494l-11.494-11.494c-1.567-1.567-3.135-2.09-5.224-2.09H44.408C20.898,364.669,0,382.955,0,406.465v20.898
	c0,4.18,5.747,5.225,9.926,5.225h110.237v5.224c1.045,5.224,5.224,9.404,10.449,10.449H356.31c5.224-1.045,8.882-5.224,9.404-10.449
	v-5.224h125.91c4.18,0,9.927-2.09,9.927-6.792v-25.077C501.029,378.253,482.743,359.967,460.278,359.445z M78.367,416.914H15.674
	v-10.449c0-14.629,14.106-26.122,28.735-26.122h20.898l13.061,10.971V416.914z M120.163,416.914H94.041v-23.51l12.016-13.061h14.106
	V416.914z M350.041,432.588H135.837v-52.245c0-23.51,21.943-41.796,45.453-41.796h33.437l20.375,20.375v37.094
	c0,4.18,3.657,7.837,7.837,7.837s7.837-3.657,7.837-7.837v-37.094l20.898-20.375h33.437c24.033,0,44.931,18.286,44.931,41.796
	L350.041,432.588L350.041,432.588z M412.735,416.914h-47.02v-35.526c0-4.18,7.837-6.269,13.061-6.269h24.555
	c3.135,0,4.18,3.657,9.404,4.702V416.914z M485.878,416.914h-57.469v-36.571c5.224-1.045,8.882-5.224,12.539-5.224h19.331
	c14.106,0.522,25.078,11.494,25.6,25.6L485.878,416.914L485.878,416.914z"/>
<g>
	<path style="fill:#00EFD1;" d="M313.992,364.147v-32.914c0-4.18-3.657-7.837-7.837-7.837c-4.18,0-7.837,3.657-7.837,7.837v32.914
		c-10.449,3.135-17.763,13.061-17.763,24.033c0,14.106,11.494,25.6,25.6,25.6s25.6-11.494,25.6-25.6
		C331.755,376.686,324.441,367.282,313.992,364.147z M315.559,388.702c-0.522,5.224-4.702,9.926-10.449,9.404
		c-5.225-0.522-9.927-4.702-9.404-10.449c0.522-5.224,4.702-9.926,10.449-9.404C311.38,378.776,315.559,382.955,315.559,388.702
		C315.559,388.18,315.559,388.702,315.559,388.702z"/>
	<path style="fill:#00EFD1;" d="M215.249,363.624c-1.567-13.061-10.971-22.988-22.988-25.6v-7.837c0-0.522,0-0.522,0-1.045
		c-0.522-4.18-3.657-6.792-7.837-6.792c-4.18,0-7.837,3.657-7.837,7.837v7.837c-14.629,4.18-24.555,18.286-22.465,33.959v31.869
		c0,4.18,3.657,7.837,7.837,7.837h9.404c4.18,0,7.837-3.657,7.837-7.837c0-4.18-3.657-7.837-7.837-7.837h-1.567v-24.033
		c0-8.359,6.792-15.151,15.151-15.151h0.522c7.837,0.522,14.629,7.314,14.106,15.151v24.033h-3.135c-4.18,0-7.837,3.657-7.837,7.837
		c0,4.18,3.657,7.837,7.837,7.837h10.971c4.18,0,7.837-3.657,7.837-7.837v-31.869C215.772,368.849,215.772,366.237,215.249,363.624z
		"/>
</g>
<path style="fill:#00ACEA;" d="M363.102,135.837c-1.045-1.045-2.09-2.09-3.657-2.612c-0.522-0.522-1.045-1.045-2.09-1.045
	c-15.673-9.404-35.527-7.837-49.11,4.702c-25.6-37.094-76.8-46.498-113.894-20.898c-8.359,5.747-16.196,13.584-21.943,21.943
	l-2.09,3.135c-4.702,8.359-8.359,17.763-10.449,27.167l-1.045,29.78c0,3.657,1.045,6.269,4.702,7.314
	c12.016,3.135,26.122,4.702,38.139,4.18h10.971c29.78-2.612,53.29-14.106,69.486-33.437c6.792,12.539,17.241,22.465,29.78,28.735
	c1.567,1.045,3.657,1.045,5.747,0.522c5.747,2.612,12.016,4.18,18.286,4.18l9.927-1.045c10.971-2.612,20.375-9.404,25.6-19.331
	C382.433,171.886,378.776,148.898,363.102,135.837z M240.849,117.029l0.522,0.522c-13.061,11.494-29.78,18.286-47.543,18.808
	C206.367,124.343,223.086,117.029,240.849,117.029z M182.335,152.033h8.359c26.645,0,52.245-11.494,70.008-31.869l8.882,3.657
	c-19.853,30.824-56.425,47.02-92.473,40.229C178.678,159.869,180.245,155.69,182.335,152.033z M291.004,157.78
	c-0.522-3.135-3.135-5.224-6.269-5.747c-3.135-0.522-6.269,1.045-7.837,3.657c-13.061,22.465-33.959,35.526-64.261,38.139
	c-12.016,0.522-25.6,0-37.616-2.09l0.522-12.539c6.269,1.045,12.016,1.567,18.286,1.567c36.049,0.522,70.008-17.763,89.339-48.588
	c6.792,5.747,12.539,13.061,16.718,20.898c4.702,9.404,7.314,19.853,7.314,30.302C299.363,176.588,294.139,167.706,291.004,157.78z
	 M316.082,150.988c6.269-7.314,16.196-10.449,25.6-8.359l-22.465,16.718L316.082,150.988z M322.874,176.588l32.914-25.6
	c1.567,2.09,3.135,4.18,4.18,6.269l-37.094,25.077V176.588z M358.4,181.29c-3.657,5.747-9.404,9.926-16.196,11.494
	c-2.612,1.045-5.747,1.045-8.359,1.045l27.167-18.286C359.967,177.633,359.445,179.2,358.4,181.29z"/>
<g>
</g>
<g>
</g>
<g>
</g>
<g>
</g>
<g>
</g>
<g>
</g>
<g>
</g>
<g>
</g>
<g>
</g>
<g>
</g>
<g>
</g>
<g>
</g>
<g>
</g>
<g>
</g>
<g>
</g>
</svg>
